<svg width="720" height="1080" viewBox="0 0 720 1080" fill="none" xmlns="http://www.w3.org/2000/svg">
  <rect width="720" height="1080" fill="#F7F2EA"/>
  <rect x="72" y="72" width="576" height="936" rx="40" fill="#FBF8F3"/>
  <g stroke="#6E645C" stroke-width="8" stroke-linecap="round" stroke-linejoin="round">
    <path d="M176 908H546"/>
    <path d="M132 226H260L302 270"/>
    <path d="M286 274C286 206.621 340.621 152 408 152C475.379 152 530 206.621 530 274V412C530 479.379 475.379 534 408 534C340.621 534 286 479.379 286 412V274Z"/>
    <path d="M350 246C370 200 412 176 456 184C430 164 374 168 340 212L350 246Z"/>
    <path d="M472 246C452 198 412 176 364 180C414 164 478 188 504 232L472 246Z"/>
    <path d="M344 284C364 236 406 214 450 222C430 204 384 206 352 238L344 284Z"/>
    <path d="M332 344C332 293.19 373.19 252 424 252C474.81 252 516 293.19 516 344V412C516 462.81 474.81 504 424 504C373.19 504 332 462.81 332 412V344Z"/>
    <path d="M388 356C396 350 406 348 416 350"/>
    <path d="M438 350C448 348 458 350 466 356"/>
    <path d="M414 388C412 408 412 426 420 438"/>
    <path d="M400 458C414 470 436 470 450 458"/>
    <path d="M330 562C330 515.608 367.608 478 414 478H450C496.392 478 534 515.608 534 562V696H330V562Z"/>
    <path d="M354 694V604"/>
    <path d="M510 694V604"/>
    <path d="M228 848C228 724.325 328.325 624 452 624H392C515.675 624 616 724.325 616 848V910H228V848Z"/>
    <path d="M160 896H560"/>
    <circle cx="214" cy="304" r="34"/>
    <path d="M196 304L210 318L236 286"/>
    <path d="M182 338H244"/>
  </g>
</svg>
