<svg width="720" height="1080" viewBox="0 0 720 1080" fill="none" xmlns="http://www.w3.org/2000/svg">
  <rect width="720" height="1080" fill="#F7F2EA"/>
  <rect x="72" y="72" width="576" height="936" rx="40" fill="#FBF8F3"/>
  <g stroke="#6E645C" stroke-width="8" stroke-linecap="round" stroke-linejoin="round">
    <path d="M164 902H556"/>
    <path d="M144 212H576"/>
    <path d="M144 364H576"/>
    <path d="M188 254H312V326H188Z"/>
    <path d="M434 234H520V332H434Z"/>
    <path d="M456 210V234"/>
    <path d="M498 210V234"/>
    <path d="M254 510C254 427.157 321.157 360 404 360C486.843 360 554 427.157 554 510V646C554 728.843 486.843 796 404 796C321.157 796 254 728.843 254 646V510Z"/>
    <path d="M318 480C340 426 388 396 438 404C410 382 348 386 310 434L318 480Z"/>
    <path d="M474 480C452 426 406 400 354 402C408 386 482 416 510 466L474 480Z"/>
    <path d="M308 536C328 478 378 448 430 456C406 436 352 440 318 478L308 536Z"/>
    <path d="M292 584C292 521.039 343.039 470 406 470C468.961 470 520 521.039 520 584V650C520 712.961 468.961 764 406 764C343.039 764 292 712.961 292 650V584Z"/>
    <path d="M368 596C376 590 386 588 396 590"/>
    <path d="M420 590C430 588 440 590 448 596"/>
    <path d="M396 626C394 646 394 662 402 674"/>
    <path d="M382 704C396 714 418 714 432 704"/>
    <path d="M292 808C292 757.19 333.19 716 384 716H428C478.81 716 520 757.19 520 808V902H292V808Z"/>
    <path d="M140 870H240"/>
    <path d="M490 870H590"/>
  </g>
</svg>
