<svg width="720" height="1080" viewBox="0 0 720 1080" fill="none" xmlns="http://www.w3.org/2000/svg">
  <rect width="720" height="1080" fill="#F7F2EA"/>
  <rect x="72" y="72" width="576" height="936" rx="40" fill="#FBF8F3"/>
  <g stroke="#6E645C" stroke-width="8" stroke-linecap="round" stroke-linejoin="round">
    <path d="M172 904H548"/>
    <path d="M418 590H586"/>
    <path d="M430 602H574V734H430Z"/>
    <path d="M454 626H550"/>
    <path d="M470 746H536"/>
    <path d="M256 304C256 237.173 310.173 183 377 183C443.827 183 498 237.173 498 304V428C498 494.827 443.827 549 377 549C310.173 549 256 494.827 256 428V304Z"/>
    <path d="M320 278C338 232 378 208 420 216C396 198 344 202 312 244L320 278Z"/>
    <path d="M438 278C420 232 382 210 338 214C384 198 444 222 470 266L438 278Z"/>
    <path d="M312 320C330 272 372 246 416 252C398 236 356 238 324 270L312 320Z"/>
    <path d="M286 352C286 302.847 325.847 263 375 263C424.153 263 464 302.847 464 352V426C464 475.153 424.153 515 375 515C325.847 515 286 475.153 286 426V352Z"/>
    <path d="M340 362C348 356 358 354 368 356"/>
    <path d="M390 356C400 354 410 356 418 362"/>
    <path d="M370 392C368 410 368 426 374 438"/>
    <path d="M356 466C370 476 392 476 406 466"/>
    <path d="M286 572C286 525.056 324.056 487 371 487H405C451.944 487 490 525.056 490 572V704H286V572Z"/>
    <path d="M314 704V620"/>
    <path d="M462 704V620"/>
    <path d="M290 714H430"/>
    <path d="M432 612L398 578"/>
    <path d="M520 764C520 721.49 554.49 687 597 687C639.51 687 674 721.49 674 764V900H520V764Z"/>
    <path d="M228 902H560"/>
  </g>
</svg>
