<svg width="720" height="1080" viewBox="0 0 720 1080" fill="none" xmlns="http://www.w3.org/2000/svg">
  <rect width="720" height="1080" fill="#E5DBCF"/>
  <rect x="76" y="76" width="568" height="928" rx="42" fill="#F9F4EC"/>
  <rect x="134" y="156" width="452" height="280" rx="34" fill="#2A3640"/>
  <rect x="166" y="186" width="388" height="216" rx="20" fill="#EEF1F2"/>
  <path d="M202 248H300" stroke="#314750" stroke-width="14" stroke-linecap="round"/>
  <path d="M202 294H344" stroke="#C6874F" stroke-width="12" stroke-linecap="round"/>
  <path d="M202 336H274" stroke="#5D8A88" stroke-width="12" stroke-linecap="round"/>
  <path d="M366 353C366 284.516 421.516 229 490 229C558.484 229 614 284.516 614 353V435H366V353Z" fill="#314750"/>
  <path d="M402 324C402 278.161 439.161 241 485 241C530.839 241 568 278.161 568 324V380C568 425.839 530.839 463 485 463C439.161 463 402 425.839 402 380V324Z" fill="#F2DCC8"/>
  <path d="M390 330C390 269.249 439.249 220 500 220C560.751 220 610 269.249 610 330V390H390V330Z" fill="#2D1F1B"/>
  <circle cx="458" cy="344" r="7" fill="#2D1F1B"/>
  <circle cx="516" cy="344" r="7" fill="#2D1F1B"/>
  <path d="M468 392C480 402 498 402 510 392" stroke="#A96F54" stroke-width="7" stroke-linecap="round"/>
  <path d="M394 470C394 423.056 432.056 385 479 385C525.944 385 564 423.056 564 470V560H394V470Z" fill="#C6874F"/>
  <path d="M140 612H584" stroke="#B98552" stroke-width="12" stroke-linecap="round"/>
  <circle cx="208" cy="612" r="34" fill="#314750"/>
  <circle cx="360" cy="612" r="34" fill="#5D8A88"/>
  <circle cx="512" cy="612" r="34" fill="#C6874F"/>
  <path d="M208 612L232 588L256 612" stroke="#F8F3EC" stroke-width="10" stroke-linecap="round" stroke-linejoin="round"/>
  <path d="M360 628L378 594L396 628" stroke="#F8F3EC" stroke-width="10" stroke-linecap="round" stroke-linejoin="round"/>
  <path d="M494 612L508 628L532 590" stroke="#F8F3EC" stroke-width="10" stroke-linecap="round" stroke-linejoin="round"/>
  <rect x="164" y="706" width="392" height="150" rx="28" fill="#EFE4D6"/>
  <rect x="208" y="748" width="304" height="18" rx="9" fill="#AF8A67"/>
  <rect x="208" y="792" width="248" height="18" rx="9" fill="#C6AF97"/>
  <rect x="208" y="836" width="186" height="18" rx="9" fill="#D9CCBE"/>
</svg>
