<svg width="720" height="1080" viewBox="0 0 720 1080" fill="none" xmlns="http://www.w3.org/2000/svg">
  <rect width="720" height="1080" fill="#E8DDD1"/>
  <rect x="84" y="84" width="552" height="912" rx="42" fill="#FBF7F0"/>
  <circle cx="170" cy="198" r="50" fill="#DAB891"/>
  <rect x="134" y="170" width="210" height="250" rx="30" fill="#314750"/>
  <rect x="160" y="198" width="158" height="192" rx="20" fill="#EFF2F2"/>
  <path d="M184 240H262" stroke="#314750" stroke-width="12" stroke-linecap="round"/>
  <path d="M184 280H244" stroke="#C6874F" stroke-width="10" stroke-linecap="round"/>
  <path d="M368 360C368 283.817 429.817 222 506 222C582.183 222 644 283.817 644 360V446C644 522.183 582.183 584 506 584C429.817 584 368 522.183 368 446V360Z" fill="#2F221D"/>
  <path d="M402 392C402 331.801 450.801 283 511 283C571.199 283 620 331.801 620 392V468C620 528.199 571.199 577 511 577C450.801 577 402 528.199 402 468V392Z" fill="#F2DCC8"/>
  <circle cx="478" cy="420" r="7" fill="#2F221D"/>
  <circle cx="544" cy="420" r="7" fill="#2F221D"/>
  <path d="M488 474C500 484 520 484 532 474" stroke="#A76C51" stroke-width="8" stroke-linecap="round"/>
  <path d="M408 606C408 556.294 448.294 516 498 516C547.706 516 588 556.294 588 606V704H408V606Z" fill="#C6874F"/>
  <rect x="150" y="742" width="420" height="124" rx="28" fill="#EFE3D5"/>
  <path d="M196 790H350" stroke="#B1845A" stroke-width="12" stroke-linecap="round"/>
  <path d="M196 832H310" stroke="#CDB8A2" stroke-width="10" stroke-linecap="round"/>
  <circle cx="454" cy="804" r="24" fill="#314750"/>
  <circle cx="518" cy="804" r="24" fill="#5D8A88"/>
</svg>
